# xmcd
#
# Track frame offsets:
# 150
# 15024
# 31458
# 43403
# 54797
# 71423
# 84674
# 98836
# 110262
# 121581
# 135863
# 149183
# 164020
# 178505
# 192669
# 204268
#
# Disc length: 2885 seconds
#
#
# Revision: 0
# Processed by: cddbd v1.5.2PL0 Copyright (c) Steve Scherf et al.
# Submitted via: FreeRIP 2.96 
#
DISCID=d50b4310
DTITLE=Variados - Só Sucessos
DYEAR=2006
DGENRE=Country
TTITLE0=João Boiadeiro - Nestor e Nestorzinho
TTITLE1=Milagres das Rosas - Tabagi e Niltinho
TTITLE2=Rei do Gado - Carreiro e Carreirinho
TTITLE3=Onde Estas Felicidade - Cascatinha e Inhana
TTITLE4=Meu Reino Encantado - Platino e Platini
TTITLE5=Hoje É Meu Aniversário - Rei da Mata e Tião do Gado
TTITLE6=Cantinho do Céu - Caçula e Marinho
TTITLE7=E... São Paulo - Alvarenga e Ranchinho
TTITLE8=Cavalo Preto - Zé Fleury e Domitila
TTITLE9=Testamento de um Pobre Velho - Silveira e Silveirinha
TTITLE10=Fingindo - Diamante e Nelsinho
TTITLE11=Saudade de Porto Alegre - Pirigoso e Lúcio Sampaio
TTITLE12=Juramento - Zico e Zeca (Pirassununga)
TTITLE13=Primeiro a Esposa Depois a Amante =Caçula e Marinheiro
TTITLE14=Pescador Vagabundo - Moreno e Moreninho
TTITLE15=Filho do Diabo - Irmãos Divino
EXTD=
EXTT0=
EXTT1=
EXTT2=
EXTT3=
EXTT4=
EXTT5=
EXTT6=
EXTT7=
EXTT8=
EXTT9=
EXTT10=
EXTT11=
EXTT12=
EXTT13=
EXTT14=
EXTT15=
PLAYORDER=
